<?xml version="1.0" encoding="UTF-8"?><svg id="Layer_1" xmlns="http://www.w3.org/2000/svg" width="405.14" height="65.63" viewBox="0 0 405.14 65.63"><defs><style>.cls-1{fill:none;}.cls-2{fill:red;}</style></defs><rect class="cls-1" x="-2.95" y="5.23" width="1094.22" height="417.01"/><path d="M3.6,62.68V9.33h32.83v8.93H14.26v13.9h18.94v8.93H14.26v21.6H3.6Z"/><path d="M51.34,63.69c-2.35,0-4.43-.52-6.23-1.55-1.8-1.03-3.19-2.46-4.18-4.28-.98-1.82-1.48-3.89-1.48-6.19,0-4.27,1.85-7.6,5.54-9.97,3.7-2.38,9.58-4,17.64-4.86-.05-1.34-.29-2.53-.72-3.56-.43-1.03-1.14-1.86-2.12-2.48-.98-.62-2.32-.94-4-.94-1.87,0-3.72.36-5.54,1.08-1.82.72-3.67,1.66-5.54,2.81l-3.74-7.06c1.58-1.01,3.26-1.9,5.04-2.66,1.77-.77,3.65-1.4,5.62-1.91,1.97-.5,4.01-.76,6.12-.76,3.41,0,6.26.67,8.57,2.02,2.3,1.34,4.03,3.34,5.18,5.98,1.15,2.64,1.73,5.9,1.73,9.79v23.54h-8.64l-.72-4.32h-.36c-1.73,1.54-3.6,2.81-5.62,3.82-2.02,1.01-4.2,1.51-6.55,1.51ZM54.87,55.41c1.49,0,2.84-.35,4.07-1.04,1.22-.7,2.46-1.67,3.71-2.92v-8.06c-3.26.38-5.86.94-7.78,1.66-1.92.72-3.29,1.57-4.1,2.56-.82.98-1.22,2.08-1.22,3.28,0,1.58.49,2.74,1.48,3.46.98.72,2.27,1.08,3.85,1.08Z"/><path d="M95.55,63.69c-2.69,0-5.41-.53-8.17-1.58-2.76-1.06-5.15-2.4-7.16-4.03l4.82-6.7c1.78,1.34,3.54,2.41,5.29,3.2,1.75.79,3.59,1.19,5.51,1.19,2.02,0,3.49-.4,4.43-1.19s1.4-1.81,1.4-3.06c0-1.01-.41-1.86-1.22-2.56-.82-.7-1.87-1.32-3.17-1.87-1.3-.55-2.64-1.09-4.03-1.62-1.68-.67-3.35-1.49-5-2.45-1.66-.96-3.04-2.2-4.14-3.71-1.1-1.51-1.66-3.4-1.66-5.65,0-2.4.62-4.52,1.87-6.37,1.25-1.85,2.99-3.3,5.22-4.36,2.23-1.06,4.88-1.58,7.96-1.58s5.53.5,7.81,1.51c2.28,1.01,4.24,2.16,5.87,3.46l-4.75,6.41c-1.44-1.06-2.87-1.9-4.28-2.52-1.42-.62-2.87-.94-4.36-.94-1.87,0-3.24.36-4.1,1.08-.86.72-1.3,1.66-1.3,2.81,0,.96.36,1.76,1.08,2.41.72.65,1.7,1.21,2.95,1.69,1.25.48,2.57.98,3.96,1.51,1.34.48,2.67,1.04,4,1.69,1.32.65,2.53,1.43,3.64,2.34,1.1.91,1.98,2.03,2.63,3.35.65,1.32.97,2.92.97,4.79,0,2.35-.61,4.5-1.84,6.44-1.22,1.94-3.02,3.48-5.4,4.61-2.38,1.13-5.32,1.69-8.82,1.69Z"/><path d="M119.67,62.68V5.23h10.58v14.47l-.5,7.56c1.58-1.54,3.41-2.9,5.47-4.1,2.06-1.2,4.46-1.8,7.2-1.8,4.37,0,7.54,1.43,9.5,4.28,1.97,2.86,2.95,6.83,2.95,11.92v25.13h-10.58v-23.83c0-3.12-.44-5.3-1.33-6.55-.89-1.25-2.34-1.87-4.36-1.87-1.63,0-3.06.38-4.28,1.15-1.22.77-2.58,1.9-4.07,3.38v27.72h-10.58Z"/><path d="M171.07,15.81c-1.87,0-3.36-.52-4.46-1.55-1.1-1.03-1.66-2.44-1.66-4.21s.55-3.12,1.66-4.18c1.1-1.06,2.59-1.58,4.46-1.58,1.77,0,3.24.53,4.39,1.58,1.15,1.06,1.73,2.45,1.73,4.18s-.58,3.18-1.73,4.21c-1.15,1.03-2.62,1.55-4.39,1.55ZM165.75,62.68V22.36h10.58v40.32h-10.58Z"/><path d="M204.48,63.69c-3.36,0-6.52-.84-9.47-2.52-2.95-1.68-5.34-4.09-7.16-7.24-1.82-3.14-2.74-6.95-2.74-11.41s.91-8.27,2.74-11.41c1.82-3.14,4.21-5.56,7.16-7.24,2.95-1.68,6.11-2.52,9.47-2.52,2.54,0,4.97.48,7.27,1.44,2.3.96,4.37,2.34,6.19,4.14,1.82,1.8,3.26,4.01,4.32,6.62,1.06,2.62,1.58,5.6,1.58,8.96,0,4.46-.91,8.27-2.74,11.41-1.82,3.14-4.21,5.56-7.16,7.24-2.95,1.68-6.11,2.52-9.47,2.52ZM204.48,55.05c1.82,0,3.37-.52,4.64-1.55,1.27-1.03,2.23-2.48,2.88-4.36s.97-4.08.97-6.62-.32-4.75-.97-6.62c-.65-1.87-1.61-3.32-2.88-4.36-1.27-1.03-2.82-1.55-4.64-1.55s-3.37.52-4.64,1.55c-1.27,1.03-2.23,2.48-2.88,4.36-.65,1.87-.97,4.08-.97,6.62s.32,4.75.97,6.62c.65,1.87,1.61,3.32,2.88,4.36,1.27,1.03,2.82,1.55,4.64,1.55Z"/><path d="M232.71,62.68V22.36h8.64l.79,5.33h.22c1.78-1.73,3.72-3.21,5.83-4.46,2.11-1.25,4.54-1.87,7.27-1.87,4.37,0,7.54,1.43,9.5,4.28,1.97,2.86,2.95,6.83,2.95,11.92v25.13h-10.58v-23.83c0-3.12-.44-5.3-1.33-6.55-.89-1.25-2.34-1.87-4.36-1.87-1.63,0-3.06.38-4.28,1.15-1.22.77-2.58,1.9-4.07,3.38v27.72h-10.58Z"/><rect class="cls-1" x="159.05" y="5.23" width="163.67" height="120.81"/><path class="cls-2" d="M275.27,62.68l16.85-29.52,7.49,6.62-12.38,22.9h-11.95ZM305.51,62.68v-20.16h-7.85c-3.79,0-7.2-.59-10.22-1.76-3.02-1.18-5.42-3.02-7.2-5.54-1.78-2.52-2.66-5.75-2.66-9.68s.89-7.31,2.66-9.68c1.78-2.38,4.18-4.06,7.2-5.04,3.02-.98,6.43-1.48,10.22-1.48h18.5v53.35h-10.66ZM305.51,17.83h-6.91c-3.46,0-6.08.56-7.88,1.69-1.8,1.13-2.7,3.13-2.7,6.01s.9,4.97,2.7,6.41c1.8,1.44,4.43,2.16,7.88,2.16h6.91v-16.27Z"/><rect class="cls-1" x="368.7" y="5.91" width="103.15" height="58.84"/><path d="M385.91,64.37c-2.69,0-5.41-.53-8.17-1.58-2.76-1.06-5.15-2.4-7.16-4.03l4.82-6.7c1.78,1.34,3.54,2.41,5.29,3.2,1.75.79,3.59,1.19,5.51,1.19,2.02,0,3.49-.4,4.43-1.19s1.4-1.81,1.4-3.06c0-1.01-.41-1.86-1.22-2.56-.82-.7-1.87-1.32-3.17-1.87-1.3-.55-2.64-1.09-4.03-1.62-1.68-.67-3.35-1.49-5-2.45-1.66-.96-3.04-2.2-4.14-3.71-1.1-1.51-1.66-3.4-1.66-5.65,0-2.4.62-4.52,1.87-6.37,1.25-1.85,2.99-3.3,5.22-4.36,2.23-1.06,4.88-1.58,7.96-1.58s5.53.5,7.81,1.51c2.28,1.01,4.24,2.16,5.87,3.46l-4.75,6.41c-1.44-1.06-2.87-1.9-4.28-2.52-1.42-.62-2.87-.94-4.36-.94-1.87,0-3.24.36-4.1,1.08-.86.72-1.3,1.66-1.3,2.81,0,.96.36,1.76,1.08,2.41.72.65,1.7,1.21,2.95,1.69,1.25.48,2.57.98,3.96,1.51,1.34.48,2.67,1.04,4,1.69,1.32.65,2.53,1.43,3.64,2.34,1.1.91,1.98,2.03,2.63,3.35.65,1.32.97,2.92.97,4.79,0,2.35-.61,4.5-1.84,6.44-1.22,1.94-3.02,3.48-5.4,4.61-2.38,1.13-5.32,1.69-8.82,1.69Z"/><rect class="cls-1" x="208.29" y="5.23" width="163.67" height="120.81"/><path d="M336.24,62.29c-2.54-.94-4.7-2.41-6.48-4.43-1.78-2.02-3.12-4.61-4.03-7.78-.91-3.17-1.37-6.96-1.37-11.38V9.33h10.22v30.31c0,3.7.42,6.62,1.26,8.78.84,2.16,2.03,3.71,3.56,4.64,1.54.94,3.36,1.4,5.47,1.4s3.92-.47,5.44-1.4c1.51-.94,2.68-2.48,3.49-4.64.82-2.16,1.22-5.09,1.22-8.78V9.33h10.58v29.38c0,4.42-.46,8.21-1.37,11.38-.91,3.17-2.27,5.76-4.07,7.78-1.8,2.02-3.97,3.49-6.52,4.43-2.54.94-5.47,1.4-8.78,1.4s-6.1-.47-8.64-1.4Z"/></svg>